<svg xmlns="http://www.w3.org/2000/svg" xmlns:xlink="http://www.w3.org/1999/xlink" width="598" zoomAndPan="magnify" viewBox="0 0 448.5 137.249994" height="183" preserveAspectRatio="xMidYMid meet" version="1.0"><defs><g/><clipPath id="b3a61e8f3a"><path d="M 3.40625 13.605469 L 3.773438 13.605469 L 3.773438 13.796875 L 3.40625 13.796875 Z M 3.40625 13.605469 " clip-rule="nonzero"/></clipPath><clipPath id="c08bc04e55"><path d="M 3.765625 13.722656 C 3.078125 13.929688 3.628906 13.617188 3.628906 13.617188 " clip-rule="nonzero"/></clipPath><clipPath id="495a1e586d"><path d="M 0.40625 0.605469 L 0.773438 0.605469 L 0.773438 0.796875 L 0.40625 0.796875 Z M 0.40625 0.605469 " clip-rule="nonzero"/></clipPath><clipPath id="5d908be8a9"><path d="M 0.765625 0.722656 C 0.078125 0.929688 0.628906 0.617188 0.628906 0.617188 " clip-rule="nonzero"/></clipPath><clipPath id="f7642d54e2"><rect x="0" width="1" y="0" height="1"/></clipPath><clipPath id="5b4f9d2ac8"><path d="M 242 0 L 262 0 L 262 27 L 242 27 Z M 242 0 " clip-rule="nonzero"/></clipPath><clipPath id="1f685c7fe7"><path d="M 241 7 L 357.621094 7 L 357.621094 27 L 241 27 Z M 241 7 " clip-rule="nonzero"/></clipPath><clipPath id="b64e659938"><path d="M 0.292969 1 L 65 1 L 65 24 L 0.292969 24 Z M 0.292969 1 " clip-rule="nonzero"/></clipPath><clipPath id="89fae0ec84"><path d="M 241 0 L 319 0 L 319 16 L 241 16 Z M 241 0 " clip-rule="nonzero"/></clipPath><clipPath id="ef77ba33d4"><path d="M 81 0 L 194 0 L 194 19 L 81 19 Z M 81 0 " clip-rule="nonzero"/></clipPath><clipPath id="b1e0476fcd"><rect x="0" width="358" y="0" height="82"/></clipPath></defs><g transform="matrix(1, 0, 0, 1, 15, -0.000000000000003064)"><g clip-path="url(#b1e0476fcd)"><g clip-path="url(#b3a61e8f3a)"><g clip-path="url(#c08bc04e55)"><g transform="matrix(1, 0, 0, 1, 3, 13)"><g clip-path="url(#f7642d54e2)"><g clip-path="url(#495a1e586d)"><g clip-path="url(#5d908be8a9)"><rect x="-181.254" width="775.008" fill="#ffffff" y="-62.958998" height="237.16799" fill-opacity="1"/></g></g></g></g></g></g><path stroke-linecap="butt" transform="matrix(0, -0.851496, 0.851496, 0, 53.933441, 79.498326)" fill="none" stroke-linejoin="miter" d="M -0.00196541 1.000258 L 79.807047 1.000258 " stroke="#f5f7fa" stroke-width="2" stroke-opacity="1" stroke-miterlimit="4"/><g clip-path="url(#5b4f9d2ac8)"><path stroke-linecap="butt" transform="matrix(-0.00662427, 0.85147, -0.85147, -0.00662427, 252.808147, 0.861667)" fill="none" stroke-linejoin="miter" d="M 0.000497611 0.99958 L 18.90622 0.999302 " stroke="#f5f7fa" stroke-width="2" stroke-opacity="1" stroke-miterlimit="4"/></g><path stroke-linecap="butt" transform="matrix(0, 0.851496, -0.851496, 0, 287.664292, 23.157695)" fill="none" stroke-linejoin="miter" d="M -0.00169674 1.000348 L 66.177806 1.000348 " stroke="#f5f7fa" stroke-width="2" stroke-opacity="1" stroke-miterlimit="4"/><path stroke-linecap="butt" transform="matrix(0.0000000757932, 0.851496, -0.851496, 0.0000000757932, 184.303228, 4.034882)" fill="none" stroke-linejoin="miter" d="M 0.000322497 0.998365 L 88.631128 0.998373 " stroke="#f5f7fa" stroke-width="2" stroke-opacity="1" stroke-miterlimit="4"/><path stroke-linecap="butt" transform="matrix(0.00000000148614, 0.851496, -0.851496, 0.00000000148614, 92.733141, 8.576334)" fill="none" stroke-linejoin="miter" d="M 0.00210332 0.99863 L 83.297628 0.99863 " stroke="#f5f7fa" stroke-width="2" stroke-opacity="1" stroke-miterlimit="4"/><g clip-path="url(#1f685c7fe7)"><path stroke-linecap="butt" transform="matrix(0.851495, -0.000789335, 0.000789335, 0.851495, 250.972997, 15.905123)" fill="none" stroke-linejoin="miter" d="M -0.00132899 1.001402 L 123.907521 1.001577 " stroke="#f5f7fa" stroke-width="2" stroke-opacity="1" stroke-miterlimit="4"/></g><path stroke-linecap="butt" transform="matrix(0.851496, 0.000000000000002375, -0.000000000000002375, 0.851496, 2.626678, 23.221969)" fill="none" stroke-linejoin="miter" d="M -0.00197029 1.000886 L 333.748978 1.000886 " stroke="#f5f7fa" stroke-width="2" stroke-opacity="1" stroke-miterlimit="4"/><path stroke-linecap="butt" transform="matrix(0, 0.851496, -0.851496, 0, 309.546058, 4.798195)" fill="none" stroke-linejoin="miter" d="M -0.00155035 0.999119 L 87.734689 0.999119 " stroke="#f5f7fa" stroke-width="2" stroke-opacity="1" stroke-miterlimit="4"/><path stroke-linecap="butt" transform="matrix(0, 0.851496, -0.851496, 0, 356.462133, 16.382441)" fill="none" stroke-linejoin="miter" d="M 0.000436602 1.001483 L 74.134692 1.001483 " stroke="#f5f7fa" stroke-width="2" stroke-opacity="1" stroke-miterlimit="4"/><path stroke-linecap="butt" transform="matrix(0, 0.851496, -0.851496, 0, 4.336666, 13.50389)" fill="none" stroke-linejoin="miter" d="M 0.000019596 1.000934 L 12.418425 1.000934 " stroke="#f5f7fa" stroke-width="2" stroke-opacity="1" stroke-miterlimit="4"/><g clip-path="url(#b64e659938)"><path stroke-linecap="butt" transform="matrix(-0.850527, 0.0406077, -0.0406077, -0.850527, 55.401044, 12.040455)" fill="none" stroke-linejoin="miter" d="M 0.00132799 0.998325 L 61.961976 0.99886 " stroke="#f5f7fa" stroke-width="2" stroke-opacity="1" stroke-miterlimit="4"/></g><g clip-path="url(#89fae0ec84)"><path stroke-linecap="butt" transform="matrix(-0.848532, -0.0709856, 0.0709856, -0.848532, 308.568518, 6.515299)" fill="none" stroke-linejoin="miter" d="M -0.00142979 0.998704 L 67.877959 1.000889 " stroke="#f5f7fa" stroke-width="2" stroke-opacity="1" stroke-miterlimit="4"/></g><g clip-path="url(#ef77ba33d4)"><path stroke-linecap="butt" transform="matrix(-0.85016, 0.0476712, -0.0476712, -0.85016, 183.932961, 4.760878)" fill="none" stroke-linejoin="miter" d="M -0.00171217 1.000565 L 109.242354 1.00146 " stroke="#f5f7fa" stroke-width="2" stroke-opacity="1" stroke-miterlimit="4"/></g></g></g><g fill="#f5f7fa" fill-opacity="1"><g transform="translate(18.794799, 78.207292)"><g><path d="M 23.078125 -31.734375 C 20.992188 -31.734375 19.085938 -31.171875 17.359375 -30.046875 C 15.628906 -28.929688 14.242188 -27.453125 13.203125 -25.609375 C 12.171875 -23.765625 11.65625 -21.726562 11.65625 -19.5 C 11.65625 -17.300781 12.171875 -15.269531 13.203125 -13.40625 C 14.242188 -11.539062 15.628906 -10.050781 17.359375 -8.9375 C 19.085938 -7.820312 20.992188 -7.265625 23.078125 -7.265625 C 24.347656 -7.265625 25.679688 -7.445312 27.078125 -7.8125 C 28.484375 -8.175781 29.789062 -8.878906 31 -9.921875 C 32.21875 -10.960938 33.171875 -12.460938 33.859375 -14.421875 L 23.875 -14.421875 L 23.875 -20.9375 L 43.203125 -20.9375 L 43.203125 -19.609375 C 43.203125 -16.835938 42.679688 -14.234375 41.640625 -11.796875 C 40.609375 -9.359375 39.171875 -7.203125 37.328125 -5.328125 C 35.484375 -3.460938 33.347656 -2.007812 30.921875 -0.96875 C 28.492188 0.0625 25.878906 0.578125 23.078125 0.578125 C 20.304688 0.578125 17.695312 0.0507812 15.25 -1 C 12.8125 -2.0625 10.671875 -3.515625 8.828125 -5.359375 C 6.984375 -7.210938 5.53125 -9.359375 4.46875 -11.796875 C 3.414062 -14.234375 2.890625 -16.835938 2.890625 -19.609375 C 2.890625 -22.378906 3.414062 -24.984375 4.46875 -27.421875 C 5.53125 -29.867188 6.984375 -32.015625 8.828125 -33.859375 C 10.671875 -35.703125 12.8125 -37.148438 15.25 -38.203125 C 17.695312 -39.265625 20.304688 -39.796875 23.078125 -39.796875 C 25.960938 -39.796875 28.691406 -39.207031 31.265625 -38.03125 C 33.835938 -36.863281 36.085938 -35.25 38.015625 -33.1875 C 39.941406 -31.132812 41.347656 -28.742188 42.234375 -26.015625 L 32.703125 -26.015625 C 31.742188 -28.085938 30.378906 -29.554688 28.609375 -30.421875 C 26.835938 -31.296875 24.992188 -31.734375 23.078125 -31.734375 Z M 23.078125 -31.734375 "/></g></g></g><g fill="#f5f7fa" fill-opacity="1"><g transform="translate(73.303956, 78.207292)"><g><path d="M 26.1875 -7.84375 L 26.1875 0 L 3.46875 0 L 3.46875 -39.234375 L 26.1875 -39.234375 L 26.1875 -31.375 L 12.109375 -31.375 L 12.109375 -23.59375 L 25.609375 -23.59375 L 25.609375 -15.75 L 12.109375 -15.75 L 12.109375 -7.84375 Z M 26.1875 -7.84375 "/></g></g></g><g fill="#f5f7fa" fill-opacity="1"><g transform="translate(112.239255, 78.207292)"><g><path d="M 18.6875 -6.109375 C 19.613281 -6.109375 20.613281 -6.253906 21.6875 -6.546875 C 22.769531 -6.835938 23.703125 -7.316406 24.484375 -7.984375 C 25.273438 -8.660156 25.671875 -9.578125 25.671875 -10.734375 C 25.671875 -11.804688 25.253906 -12.671875 24.421875 -13.328125 C 23.597656 -13.984375 22.515625 -14.519531 21.171875 -14.9375 C 19.828125 -15.363281 18.351562 -15.757812 16.75 -16.125 C 15.15625 -16.488281 13.550781 -16.929688 11.9375 -17.453125 C 10.320312 -17.972656 8.84375 -18.65625 7.5 -19.5 C 6.15625 -20.34375 5.066406 -21.4375 4.234375 -22.78125 C 3.410156 -24.132812 3 -25.847656 3 -27.921875 C 3 -29.960938 3.421875 -31.722656 4.265625 -33.203125 C 5.109375 -34.679688 6.234375 -35.910156 7.640625 -36.890625 C 9.046875 -37.867188 10.625 -38.597656 12.375 -39.078125 C 14.125 -39.554688 15.882812 -39.796875 17.65625 -39.796875 C 20.34375 -39.796875 22.859375 -39.375 25.203125 -38.53125 C 27.554688 -37.6875 29.472656 -36.347656 30.953125 -34.515625 C 32.429688 -32.691406 33.207031 -30.28125 33.28125 -27.28125 L 24.921875 -27.28125 C 24.691406 -29.320312 23.976562 -30.734375 22.78125 -31.515625 C 21.59375 -32.304688 19.921875 -32.703125 17.765625 -32.703125 C 16.960938 -32.703125 16.109375 -32.566406 15.203125 -32.296875 C 14.296875 -32.035156 13.523438 -31.601562 12.890625 -31 C 12.253906 -30.40625 11.9375 -29.609375 11.9375 -28.609375 C 11.9375 -27.609375 12.347656 -26.816406 13.171875 -26.234375 C 14.003906 -25.660156 15.09375 -25.179688 16.4375 -24.796875 C 17.78125 -24.421875 19.257812 -24.054688 20.875 -23.703125 C 22.5 -23.359375 24.109375 -22.9375 25.703125 -22.4375 C 27.296875 -21.9375 28.765625 -21.253906 30.109375 -20.390625 C 31.453125 -19.523438 32.535156 -18.398438 33.359375 -17.015625 C 34.191406 -15.628906 34.609375 -13.859375 34.609375 -11.703125 C 34.609375 -9.398438 34.144531 -7.441406 33.21875 -5.828125 C 32.300781 -4.210938 31.0625 -2.914062 29.5 -1.9375 C 27.945312 -0.957031 26.195312 -0.238281 24.25 0.21875 C 22.3125 0.6875 20.34375 0.921875 18.34375 0.921875 C 15.457031 0.921875 12.753906 0.429688 10.234375 -0.546875 C 7.722656 -1.523438 5.6875 -3.035156 4.125 -5.078125 C 2.5625 -7.117188 1.765625 -9.734375 1.734375 -12.921875 L 10.5 -12.921875 C 10.613281 -10.578125 11.476562 -8.851562 13.09375 -7.75 C 14.707031 -6.65625 16.570312 -6.109375 18.6875 -6.109375 Z M 18.6875 -6.109375 "/></g></g></g><g fill="#f5f7fa" fill-opacity="1"><g transform="translate(157.865538, 78.207292)"><g><path d="M 18.6875 -6.109375 C 19.613281 -6.109375 20.613281 -6.253906 21.6875 -6.546875 C 22.769531 -6.835938 23.703125 -7.316406 24.484375 -7.984375 C 25.273438 -8.660156 25.671875 -9.578125 25.671875 -10.734375 C 25.671875 -11.804688 25.253906 -12.671875 24.421875 -13.328125 C 23.597656 -13.984375 22.515625 -14.519531 21.171875 -14.9375 C 19.828125 -15.363281 18.351562 -15.757812 16.75 -16.125 C 15.15625 -16.488281 13.550781 -16.929688 11.9375 -17.453125 C 10.320312 -17.972656 8.84375 -18.65625 7.5 -19.5 C 6.15625 -20.34375 5.066406 -21.4375 4.234375 -22.78125 C 3.410156 -24.132812 3 -25.847656 3 -27.921875 C 3 -29.960938 3.421875 -31.722656 4.265625 -33.203125 C 5.109375 -34.679688 6.234375 -35.910156 7.640625 -36.890625 C 9.046875 -37.867188 10.625 -38.597656 12.375 -39.078125 C 14.125 -39.554688 15.882812 -39.796875 17.65625 -39.796875 C 20.34375 -39.796875 22.859375 -39.375 25.203125 -38.53125 C 27.554688 -37.6875 29.472656 -36.347656 30.953125 -34.515625 C 32.429688 -32.691406 33.207031 -30.28125 33.28125 -27.28125 L 24.921875 -27.28125 C 24.691406 -29.320312 23.976562 -30.734375 22.78125 -31.515625 C 21.59375 -32.304688 19.921875 -32.703125 17.765625 -32.703125 C 16.960938 -32.703125 16.109375 -32.566406 15.203125 -32.296875 C 14.296875 -32.035156 13.523438 -31.601562 12.890625 -31 C 12.253906 -30.40625 11.9375 -29.609375 11.9375 -28.609375 C 11.9375 -27.609375 12.347656 -26.816406 13.171875 -26.234375 C 14.003906 -25.660156 15.09375 -25.179688 16.4375 -24.796875 C 17.78125 -24.421875 19.257812 -24.054688 20.875 -23.703125 C 22.5 -23.359375 24.109375 -22.9375 25.703125 -22.4375 C 27.296875 -21.9375 28.765625 -21.253906 30.109375 -20.390625 C 31.453125 -19.523438 32.535156 -18.398438 33.359375 -17.015625 C 34.191406 -15.628906 34.609375 -13.859375 34.609375 -11.703125 C 34.609375 -9.398438 34.144531 -7.441406 33.21875 -5.828125 C 32.300781 -4.210938 31.0625 -2.914062 29.5 -1.9375 C 27.945312 -0.957031 26.195312 -0.238281 24.25 0.21875 C 22.3125 0.6875 20.34375 0.921875 18.34375 0.921875 C 15.457031 0.921875 12.753906 0.429688 10.234375 -0.546875 C 7.722656 -1.523438 5.6875 -3.035156 4.125 -5.078125 C 2.5625 -7.117188 1.765625 -9.734375 1.734375 -12.921875 L 10.5 -12.921875 C 10.613281 -10.578125 11.476562 -8.851562 13.09375 -7.75 C 14.707031 -6.65625 16.570312 -6.109375 18.6875 -6.109375 Z M 18.6875 -6.109375 "/></g></g></g><g fill="#f5f7fa" fill-opacity="1"><g transform="translate(203.49182, 78.207292)"><g><path d="M 52.375 -39.234375 L 44.765625 0 L 34.5 0 L 26.359375 -27.515625 L 18.171875 0 L 7.90625 0 L 0.28125 -39.234375 L 9.8125 -39.234375 L 14.421875 -12.171875 L 22.09375 -39.234375 L 30.578125 -39.234375 L 38.25 -12.171875 L 42.859375 -39.234375 Z M 52.375 -39.234375 "/></g></g></g><g fill="#f5f7fa" fill-opacity="1"><g transform="translate(265.441822, 78.207292)"><g><path d="M 26.1875 -7.84375 L 26.1875 0 L 3.46875 0 L 3.46875 -39.234375 L 26.1875 -39.234375 L 26.1875 -31.375 L 12.109375 -31.375 L 12.109375 -23.59375 L 25.609375 -23.59375 L 25.609375 -15.75 L 12.109375 -15.75 L 12.109375 -7.84375 Z M 26.1875 -7.84375 "/></g></g></g><g fill="#f5f7fa" fill-opacity="1"><g transform="translate(304.377099, 78.207292)"><g><path d="M 12.109375 0 L 3.46875 0 L 3.46875 -39.234375 L 12.109375 -39.234375 Z M 12.109375 0 "/></g></g></g><g fill="#f5f7fa" fill-opacity="1"><g transform="translate(329.238253, 78.207292)"><g><path d="M 34.265625 0 L 25.609375 0 L 12.109375 -24.453125 L 12.109375 0 L 3.46875 0 L 3.46875 -39.234375 L 12.109375 -39.234375 L 25.609375 -14.765625 L 25.609375 -39.234375 L 34.265625 -39.234375 Z M 34.265625 0 "/></g></g></g><g fill="#f5f7fa" fill-opacity="1"><g transform="translate(18.794799, 116.734)"><g><path d="M 4.921875 -11.4375 L 10.28125 -11.4375 C 11.625 -11.4375 12.722656 -11.890625 13.578125 -12.796875 C 14.460938 -13.703125 14.90625 -14.835938 14.90625 -16.203125 C 14.90625 -17.554688 14.488281 -18.660156 13.65625 -19.515625 C 12.8125 -20.378906 11.6875 -20.8125 10.28125 -20.8125 L 4.921875 -20.8125 Z M 17.28125 -16.125 C 17.28125 -14.113281 16.566406 -12.441406 15.140625 -11.109375 C 13.734375 -9.796875 12.003906 -9.140625 9.953125 -9.140625 L 4.921875 -9.140625 L 4.921875 0 L 2.546875 0 L 2.546875 -23.09375 L 9.953125 -23.09375 C 11.984375 -23.09375 13.710938 -22.445312 15.140625 -21.15625 C 16.566406 -19.84375 17.28125 -18.164062 17.28125 -16.125 Z M 17.28125 -16.125 "/></g></g></g><g fill="#f5f7fa" fill-opacity="1"><g transform="translate(56.109828, 116.734)"><g><path d="M 4.921875 -11.40625 L 10.28125 -11.40625 C 11.625 -11.40625 12.722656 -11.859375 13.578125 -12.765625 C 14.460938 -13.691406 14.90625 -14.835938 14.90625 -16.203125 C 14.90625 -17.535156 14.488281 -18.640625 13.65625 -19.515625 C 12.8125 -20.378906 11.6875 -20.8125 10.28125 -20.8125 L 4.921875 -20.8125 Z M 17.28125 -16.125 C 17.28125 -14.113281 16.566406 -12.441406 15.140625 -11.109375 C 13.867188 -9.929688 12.34375 -9.285156 10.5625 -9.171875 L 17.65625 0 L 14.46875 0 L 7.703125 -9.140625 L 4.921875 -9.140625 L 4.921875 0 L 2.546875 0 L 2.546875 -23.09375 L 9.953125 -23.09375 C 12.003906 -23.09375 13.734375 -22.445312 15.140625 -21.15625 C 16.566406 -19.789062 17.28125 -18.113281 17.28125 -16.125 Z M 17.28125 -16.125 "/></g></g></g><g fill="#f5f7fa" fill-opacity="1"><g transform="translate(93.93413, 116.734)"><g><path d="M 22.890625 -11.609375 C 22.890625 -14.210938 21.957031 -16.441406 20.09375 -18.296875 C 18.238281 -20.148438 16 -21.078125 13.375 -21.078125 C 10.769531 -21.078125 8.539062 -20.148438 6.6875 -18.296875 C 4.832031 -16.441406 3.90625 -14.210938 3.90625 -11.609375 C 3.90625 -8.984375 4.832031 -6.742188 6.6875 -4.890625 C 8.539062 -3.035156 10.769531 -2.109375 13.375 -2.109375 C 16 -2.109375 18.238281 -3.035156 20.09375 -4.890625 C 21.957031 -6.742188 22.890625 -8.984375 22.890625 -11.609375 Z M 25.265625 -11.609375 C 25.265625 -9.984375 24.957031 -8.445312 24.34375 -7 C 23.707031 -5.550781 22.859375 -4.289062 21.796875 -3.21875 C 20.710938 -2.132812 19.445312 -1.285156 18 -0.671875 C 16.550781 -0.046875 15.007812 0.265625 13.375 0.265625 C 11.75 0.265625 10.222656 -0.046875 8.796875 -0.671875 C 7.347656 -1.285156 6.09375 -2.132812 5.03125 -3.21875 C 3.9375 -4.289062 3.085938 -5.550781 2.484375 -7 C 1.847656 -8.445312 1.53125 -9.984375 1.53125 -11.609375 C 1.53125 -13.242188 1.847656 -14.785156 2.484375 -16.234375 C 3.085938 -17.679688 3.9375 -18.9375 5.03125 -20 C 6.09375 -21.0625 7.347656 -21.910156 8.796875 -22.546875 C 10.222656 -23.160156 11.75 -23.46875 13.375 -23.46875 C 15.007812 -23.46875 16.550781 -23.160156 18 -22.546875 C 19.445312 -21.910156 20.710938 -21.0625 21.796875 -20 C 22.859375 -18.9375 23.707031 -17.679688 24.34375 -16.234375 C 24.957031 -14.785156 25.265625 -13.242188 25.265625 -11.609375 Z M 25.265625 -11.609375 "/></g></g></g><g fill="#f5f7fa" fill-opacity="1"><g transform="translate(140.076456, 116.734)"><g><path d="M 4.921875 -11.4375 L 10.28125 -11.4375 C 11.625 -11.4375 12.722656 -11.890625 13.578125 -12.796875 C 14.460938 -13.703125 14.90625 -14.835938 14.90625 -16.203125 C 14.90625 -17.554688 14.488281 -18.660156 13.65625 -19.515625 C 12.8125 -20.378906 11.6875 -20.8125 10.28125 -20.8125 L 4.921875 -20.8125 Z M 17.28125 -16.125 C 17.28125 -14.113281 16.566406 -12.441406 15.140625 -11.109375 C 13.734375 -9.796875 12.003906 -9.140625 9.953125 -9.140625 L 4.921875 -9.140625 L 4.921875 0 L 2.546875 0 L 2.546875 -23.09375 L 9.953125 -23.09375 C 11.984375 -23.09375 13.710938 -22.445312 15.140625 -21.15625 C 16.566406 -19.84375 17.28125 -18.164062 17.28125 -16.125 Z M 17.28125 -16.125 "/></g></g></g><g fill="#f5f7fa" fill-opacity="1"><g transform="translate(177.391485, 116.734)"><g><path d="M 16.265625 0 L 2.546875 0 L 2.546875 -23.09375 L 16.265625 -23.09375 L 16.265625 -20.875 L 4.921875 -20.875 L 4.921875 -12.671875 L 15.921875 -12.671875 L 15.921875 -10.421875 L 4.921875 -10.421875 L 4.921875 -2.203125 L 16.265625 -2.203125 Z M 16.265625 0 "/></g></g></g><g fill="#f5f7fa" fill-opacity="1"><g transform="translate(215.555297, 116.734)"><g><path d="M 4.921875 -11.40625 L 10.28125 -11.40625 C 11.625 -11.40625 12.722656 -11.859375 13.578125 -12.765625 C 14.460938 -13.691406 14.90625 -14.835938 14.90625 -16.203125 C 14.90625 -17.535156 14.488281 -18.640625 13.65625 -19.515625 C 12.8125 -20.378906 11.6875 -20.8125 10.28125 -20.8125 L 4.921875 -20.8125 Z M 17.28125 -16.125 C 17.28125 -14.113281 16.566406 -12.441406 15.140625 -11.109375 C 13.867188 -9.929688 12.34375 -9.285156 10.5625 -9.171875 L 17.65625 0 L 14.46875 0 L 7.703125 -9.140625 L 4.921875 -9.140625 L 4.921875 0 L 2.546875 0 L 2.546875 -23.09375 L 9.953125 -23.09375 C 12.003906 -23.09375 13.734375 -22.445312 15.140625 -21.15625 C 16.566406 -19.789062 17.28125 -18.113281 17.28125 -16.125 Z M 17.28125 -16.125 "/></g></g></g><g fill="#f5f7fa" fill-opacity="1"><g transform="translate(253.37961, 116.734)"><g><path d="M 0.671875 -20.953125 L 0.671875 -23.15625 L 14.265625 -23.15625 L 14.265625 -20.953125 L 8.65625 -20.953125 L 8.65625 -0.0625 L 6.28125 -0.0625 L 6.28125 -20.953125 Z M 0.671875 -20.953125 "/></g></g></g><g fill="#f5f7fa" fill-opacity="1"><g transform="translate(287.672985, 116.734)"><g><path d="M 4.921875 0 L 2.546875 0 L 2.546875 -23.09375 L 4.921875 -23.09375 Z M 4.921875 0 "/></g></g></g><g fill="#f5f7fa" fill-opacity="1"><g transform="translate(314.497106, 116.734)"><g><path d="M 16.265625 0 L 2.546875 0 L 2.546875 -23.09375 L 16.265625 -23.09375 L 16.265625 -20.875 L 4.921875 -20.875 L 4.921875 -12.671875 L 15.921875 -12.671875 L 15.921875 -10.421875 L 4.921875 -10.421875 L 4.921875 -2.203125 L 16.265625 -2.203125 Z M 16.265625 0 "/></g></g></g><g fill="#f5f7fa" fill-opacity="1"><g transform="translate(352.660918, 116.734)"><g><path d="M 8.96875 -10.90625 C 4.257812 -11.988281 1.90625 -14 1.90625 -16.9375 C 1.90625 -19.113281 2.660156 -20.742188 4.171875 -21.828125 C 5.691406 -22.890625 7.46875 -23.421875 9.5 -23.421875 C 14.007812 -23.421875 16.679688 -21.75 17.515625 -18.40625 L 14.9375 -18.40625 C 14.488281 -20.394531 12.675781 -21.390625 9.5 -21.390625 C 7.28125 -21.390625 5.734375 -20.734375 4.859375 -19.421875 C 4.515625 -18.921875 4.34375 -18.296875 4.34375 -17.546875 C 4.34375 -16.128906 5.113281 -15.035156 6.65625 -14.265625 C 7.375 -13.878906 8.910156 -13.378906 11.265625 -12.765625 C 13.617188 -12.148438 15.332031 -11.472656 16.40625 -10.734375 C 17.875 -9.691406 18.609375 -8.226562 18.609375 -6.34375 C 18.609375 -4.019531 17.691406 -2.253906 15.859375 -1.046875 C 14.316406 -0.0546875 12.414062 0.4375 10.15625 0.4375 C 5.039062 0.4375 2.070312 -1.507812 1.25 -5.40625 L 4.078125 -5.40625 C 4.503906 -2.957031 6.53125 -1.734375 10.15625 -1.734375 C 12.726562 -1.734375 14.523438 -2.445312 15.546875 -3.875 C 15.953125 -4.4375 16.15625 -5.203125 16.15625 -6.171875 C 16.15625 -7.128906 15.785156 -7.910156 15.046875 -8.515625 C 13.984375 -9.378906 11.957031 -10.175781 8.96875 -10.90625 Z M 8.96875 -10.90625 "/></g></g></g></svg>
